<svg width="36" height="36" viewBox="0 0 36 36" fill="none" xmlns="http://www.w3.org/2000/svg">
<path d="M23.0003 14.6667H16.3337C15.4132 14.6667 14.667 15.4129 14.667 16.3334V23.0001C14.667 23.9206 15.4132 24.6667 16.3337 24.6667H23.0003C23.9208 24.6667 24.667 23.9206 24.667 23.0001V16.3334C24.667 15.4129 23.9208 14.6667 23.0003 14.6667Z" stroke="black" stroke-width="1.5" stroke-linecap="round" stroke-linejoin="round"/>
<path d="M21.333 14.6666V12.9999C21.333 12.5579 21.1574 12.134 20.8449 11.8214C20.5323 11.5088 20.1084 11.3333 19.6663 11.3333H12.9997C12.5576 11.3333 12.1337 11.5088 11.8212 11.8214C11.5086 12.134 11.333 12.5579 11.333 12.9999V19.6666C11.333 20.1086 11.5086 20.5325 11.8212 20.8451C12.1337 21.1577 12.5576 21.3333 12.9997 21.3333H14.6663" stroke="black" stroke-width="1.5" stroke-linecap="round" stroke-linejoin="round"/>
</svg>
