<svg width="25" height="24" viewBox="0 0 25 24" fill="none" xmlns="http://www.w3.org/2000/svg">
<g clip-path="url(#clip0_2618_17409)">
<path d="M19.5 5H16.5V4C16.5 3.20435 16.1839 2.44129 15.6213 1.87868C15.0587 1.31607 14.2956 1 13.5 1H11.5C10.7043 1 9.94129 1.31607 9.37868 1.87868C8.81607 2.44129 8.5 3.20435 8.5 4V5H5.5C4.1744 5.00159 2.90356 5.52888 1.96622 6.46622C1.02888 7.40356 0.501588 8.67441 0.5 10L0.5 18C0.501588 19.3256 1.02888 20.5965 1.96622 21.5338C2.90356 22.4711 4.1744 22.9984 5.5 23H19.5C20.8256 22.9984 22.0964 22.4711 23.0338 21.5338C23.9711 20.5965 24.4984 19.3256 24.5 18V10C24.4984 8.67441 23.9711 7.40356 23.0338 6.46622C22.0964 5.52888 20.8256 5.00159 19.5 5ZM10.5 4C10.5 3.73479 10.6054 3.48043 10.7929 3.29289C10.9804 3.10536 11.2348 3 11.5 3H13.5C13.7652 3 14.0196 3.10536 14.2071 3.29289C14.3946 3.48043 14.5 3.73479 14.5 4V5H10.5V4Z" fill="#4F8FC0"/>
<path d="M11.5 11C11.5 10.4477 11.9477 10 12.5 10C13.0523 10 13.5 10.4477 13.5 11V17C13.5 17.5523 13.0523 18 12.5 18C11.9477 18 11.5 17.5523 11.5 17V11Z" fill="white"/>
<path d="M9.5 15C8.94772 15 8.5 14.5523 8.5 14C8.5 13.4477 8.94772 13 9.5 13H15.5C16.0523 13 16.5 13.4477 16.5 14C16.5 14.5523 16.0523 15 15.5 15H9.5Z" fill="white"/>
</g>
<defs>
<clipPath id="clip0_2618_17409">
<rect width="24" height="24" fill="white" transform="translate(0.5)"/>
</clipPath>
</defs>
</svg>
