<svg width="150" height="47" viewBox="0 0 150 47" fill="none" xmlns="http://www.w3.org/2000/svg">
<path d="M63.6053 27.3594C63.0467 29.2876 62.0182 30.7851 60.52 31.8518C59.0218 32.9184 57.2388 33.4523 55.1709 33.4534C52.4052 33.4534 50.1805 32.5941 48.4968 30.8755C46.8132 29.1569 45.9713 26.8823 45.9713 24.0518C45.9713 21.2654 46.8192 18.9671 48.5151 17.1569C50.2109 15.3467 52.3715 14.4411 54.997 14.44C57.7141 14.44 59.8747 15.3633 61.4789 17.2099C63.0831 19.0564 63.8846 21.5577 63.8835 24.7136V25.2001H50.9942C51.0174 26.7555 51.395 27.9396 52.127 28.7526C52.859 29.5656 53.8869 29.9715 55.2106 29.9704C56.9528 29.9704 58.1728 29.1001 58.8706 27.3594H63.6053ZM58.8656 22.0646C58.7552 20.8809 58.3715 19.9119 57.7146 19.1574C57.0577 18.4028 56.1518 18.0256 54.997 18.0256C54.4943 18.0107 53.9939 18.0987 53.5265 18.2843C53.0592 18.4698 52.6347 18.7489 52.2793 19.1044C51.5595 19.8247 51.1295 20.8114 50.9893 22.0646H58.8656Z" fill="white"/>
<path d="M77.1604 21.2306V25.6535H66.6724V21.2306H77.1604Z" fill="white"/>
<path d="M108.598 32.9306H103.578V22.2052C103.578 21.0227 103.393 20.1115 103.022 19.4717C102.651 18.832 101.884 18.5132 100.722 18.5154C98.4207 18.5154 97.2702 19.9543 97.2702 22.8323V32.9256H92.3219V21.9967C92.3219 20.8826 92.1358 20.0178 91.7638 19.4023C91.3917 18.7867 90.674 18.4795 89.6108 18.4806C87.2183 18.4806 86.0215 20.0476 86.0204 23.1814V32.9306H81.0654V14.9629H85.772V17.4349C87.1874 15.4626 89.0925 14.4764 91.4872 14.4764C93.9724 14.4764 95.6688 15.4626 96.5763 17.4349C98.0116 15.4626 99.9746 14.4764 102.465 14.4764C104.439 14.4764 105.955 15.0506 107.013 16.1989C108.071 17.3472 108.6 18.897 108.6 20.8484L108.598 32.9306Z" fill="white"/>
<path d="M129.369 27.3594C128.81 29.2876 127.782 30.7851 126.285 31.8518C124.788 32.9184 123.004 33.4523 120.934 33.4534C118.168 33.4534 115.944 32.5941 114.26 30.8755C112.576 29.1569 111.735 26.8823 111.735 24.0518C111.735 21.2654 112.582 18.9671 114.278 17.1569C115.974 15.3467 118.135 14.4411 120.76 14.44C123.478 14.44 125.639 15.3633 127.242 17.2099C128.845 19.0564 129.647 21.5577 129.647 24.7136V25.2001H116.752C116.776 26.7555 117.153 27.9396 117.885 28.7526C118.617 29.5656 119.645 29.9715 120.969 29.9704C122.712 29.9704 123.932 29.1001 124.629 27.3594H129.369ZM124.629 22.0646C124.513 20.8809 124.126 19.9119 123.47 19.1574C122.813 18.4028 121.907 18.0256 120.752 18.0256C120.249 18.0107 119.749 18.0987 119.281 18.2843C118.814 18.4698 118.39 18.7489 118.034 19.1044C117.314 19.8247 116.884 20.8114 116.744 22.0646H124.629Z" fill="white"/>
<path d="M150 32.9306H145.33V30.6323C144.145 32.4899 142.333 33.4187 139.893 33.4187C137.408 33.4187 135.427 32.5539 133.951 30.8242C132.475 29.0946 131.737 26.7781 131.738 23.8747C131.738 21.0431 132.453 18.7685 133.881 17.051C135.31 15.3335 137.221 14.4747 139.615 14.4747C140.702 14.4702 141.777 14.7076 142.761 15.1697C143.714 15.6043 144.519 16.3062 145.08 17.19V8.13747H149.993L150 32.9306ZM145.26 23.9111C145.26 22.1705 144.883 20.8126 144.128 19.8374C143.372 18.8623 142.324 18.3753 140.981 18.3764C139.633 18.3764 138.587 18.8634 137.844 19.8374C137.101 20.8115 136.729 22.1578 136.728 23.8764C136.728 25.6182 137.106 26.9821 137.861 27.9683C138.616 28.9545 139.656 29.4481 140.981 29.4492C142.35 29.4492 143.407 28.9672 144.152 28.0031C144.898 27.039 145.267 25.675 145.26 23.9111Z" fill="white"/>
<path d="M26.2506 34.9228C23.9155 33.1573 24.472 35.1826 24.472 35.1826C24.6823 37.0838 24.9903 42.2396 17.8708 42.9064C10.7513 43.5732 5.7814 34.4777 17.5015 30.9219C27.9895 27.745 28.1402 24.2074 28.0524 23.5008C28.1369 22.7943 27.9895 19.2633 17.5015 16.0798C5.78305 12.5223 10.7513 3.42179 17.8725 4.09523C24.9937 4.76867 24.684 9.9179 24.4736 11.8191C24.4736 11.8191 23.9172 13.8444 26.2523 12.0789C26.2523 12.0789 29.4419 9.6333 29.4419 7.11494C29.4419 4.59659 29.4419 0 15.6484 0C1.85482 0 0.00165581 5.86238 0.00165581 8.03161C0.00165581 9.77229 1.79188 15.1151 17.6257 20.2759H17.6108C18.115 20.4572 18.5889 20.7132 19.0168 21.0354C20.7773 22.3707 20.8303 25.0678 18.3461 26.4047C18.2186 26.4726 17.6042 26.7207 17.4568 26.7687H17.475C1.77698 31.8931 0 36.68 0 38.7748C0 40.6809 1.85316 47 15.6467 47C29.4402 47 29.4402 42.41 29.4402 39.8851C29.4402 37.3601 26.2506 34.9228 26.2506 34.9228Z" fill="white"/>
<path d="M8.18102 19.8739C8.82524 18.1961 6.52494 19.0465 6.52494 19.0465C6.52494 19.0465 2.20752 20.6631 2.20752 23.6348C2.21083 26.5867 6.52825 28.2248 6.52825 28.2248C6.52825 28.2248 9.0604 28.976 8.18434 27.3975C7.54674 26.2525 6.881 25.2713 6.68226 24.4986C6.53644 23.9314 6.53644 23.3366 6.68226 22.7695C6.87768 22.0001 7.71235 21.0966 8.18102 19.8739Z" fill="white"/>
</svg>
