<svg width="80" height="25" viewBox="0 0 80 25" fill="none" xmlns="http://www.w3.org/2000/svg">
<path d="M33.9228 14.5528C33.6249 15.5784 33.0764 16.375 32.2773 16.9423C31.4783 17.5097 30.5273 17.7937 29.4244 17.7943C27.9494 17.7943 26.7629 17.3372 25.865 16.4231C24.967 15.5089 24.518 14.299 24.518 12.7934C24.518 11.3113 24.9702 10.0888 25.8747 9.12594C26.7791 8.16308 27.9315 7.68136 29.3317 7.68077C30.7808 7.68077 31.9331 8.17188 32.7887 9.15411C33.6443 10.1363 34.0718 11.4668 34.0712 13.1455V13.4042H27.1969C27.2093 14.2316 27.4106 14.8614 27.801 15.2939C28.1914 15.7263 28.7396 15.9422 29.4456 15.9416C30.3748 15.9416 31.0255 15.4787 31.3976 14.5528H33.9228ZM31.395 11.7364C31.3361 11.1068 31.1315 10.5913 30.7811 10.19C30.4307 9.78867 29.9476 9.58801 29.3317 9.58801C29.0636 9.58008 28.7967 9.62691 28.5474 9.72559C28.2982 9.82428 28.0718 9.97274 27.8823 10.1619C27.4984 10.545 27.269 11.0698 27.1942 11.7364H31.395Z" fill="#4F8FC0"/>
<path d="M41.1522 11.2928V13.6454H35.5586V11.2928H41.1522Z" fill="#4F8FC0"/>
<path d="M57.9188 17.5162H55.2417V11.8112C55.2417 11.1822 55.1428 10.6976 54.9449 10.3572C54.7471 10.0169 54.3382 9.84735 53.7181 9.84852C52.491 9.84852 51.8774 10.6139 51.8774 12.1448V17.5135H49.2383V11.7003C49.2383 11.1077 49.1391 10.6477 48.9406 10.3203C48.7422 9.99287 48.3595 9.82946 47.7924 9.83004C46.5164 9.83004 45.8781 10.6635 45.8775 12.3305V17.5162H43.2349V7.95889H45.7451V9.2738C46.4999 8.22469 47.516 7.70013 48.7931 7.70013C50.1186 7.70013 51.0233 8.22469 51.5073 9.2738C52.2728 8.22469 53.3198 7.70013 54.6482 7.70013C55.701 7.70013 56.5095 8.00554 57.0736 8.61635C57.6377 9.22715 57.9197 10.0515 57.9197 11.0895L57.9188 17.5162Z" fill="#4F8FC0"/>
<path d="M68.9965 14.5528C68.6986 15.5784 68.1503 16.375 67.3519 16.9423C66.5534 17.5097 65.6022 17.7937 64.4981 17.7943C63.0231 17.7943 61.8366 17.3372 60.9386 16.4231C60.0407 15.5089 59.5917 14.299 59.5917 12.7934C59.5917 11.3113 60.0439 10.0888 60.9484 9.12594C61.8528 8.16308 63.0051 7.68136 64.4054 7.68077C65.8551 7.68077 67.0074 8.17188 67.8624 9.15411C68.7174 10.1363 69.1449 11.4668 69.1449 13.1455V13.4042H62.2679C62.2803 14.2316 62.4817 14.8614 62.8721 15.2939C63.2625 15.7263 63.8107 15.9422 64.5167 15.9416C65.4464 15.9416 66.0971 15.4787 66.4687 14.5528H68.9965ZM66.4687 11.7364C66.4068 11.1068 66.2007 10.5913 65.8504 10.19C65.5 9.78867 65.0169 9.58801 64.401 9.58801C64.1329 9.58008 63.866 9.62691 63.6167 9.72559C63.3675 9.82428 63.1411 9.97274 62.9516 10.1619C62.5676 10.545 62.3383 11.0698 62.2635 11.7364H66.4687Z" fill="#4F8FC0"/>
<path d="M80 17.5162H77.5092V16.2937C76.8774 17.2818 75.9108 17.7758 74.6095 17.7758C73.2841 17.7758 72.2277 17.3158 71.4404 16.3958C70.6532 15.4758 70.2598 14.2436 70.2604 12.6993C70.2604 11.1931 70.6414 9.98318 71.4033 9.06961C72.1653 8.15604 73.1846 7.69925 74.4611 7.69925C75.0411 7.69684 75.6144 7.82311 76.1393 8.06891C76.6473 8.30008 77.0769 8.67345 77.3759 9.14354V4.32837H79.9964L80 17.5162ZM77.4721 12.7186C77.4721 11.7927 77.2707 11.0704 76.868 10.5517C76.4652 10.0331 75.9058 9.77401 75.1898 9.77459C74.4709 9.77459 73.9132 10.0336 73.517 10.5517C73.1207 11.0698 72.9222 11.786 72.9216 12.7001C72.9216 13.6266 73.123 14.3521 73.5258 14.8767C73.9285 15.4012 74.4832 15.6638 75.1898 15.6644C75.92 15.6644 76.4838 15.408 76.8812 14.8952C77.2787 14.3823 77.4757 13.6568 77.4721 12.7186Z" fill="#4F8FC0"/>
<path d="M14.0003 18.576C12.755 17.6369 13.0517 18.7141 13.0517 18.7141C13.1639 19.7254 13.3282 22.4679 9.53111 22.8226C5.73403 23.1773 3.08341 18.3392 9.33414 16.4478C14.9277 14.758 15.0081 12.8763 14.9613 12.5004C15.0063 12.1246 14.9277 10.2464 9.33414 8.55307C3.08429 6.6608 5.73403 1.8201 9.53199 2.17831C13.3299 2.53653 13.1648 5.27548 13.0526 6.28675C13.0526 6.28675 12.7558 7.36402 14.0012 6.42493C14.0012 6.42493 15.7023 5.1241 15.7023 3.78455C15.7023 2.44499 15.7023 0 8.34579 0C0.989236 0 0.000883098 3.11829 0.000883098 4.27213C0.000883098 5.19803 0.955671 8.03996 9.40038 10.7851H9.39244C9.66131 10.8815 9.9141 11.0177 10.1423 11.1891C11.0812 11.8993 11.1095 13.3339 9.7846 14.0451C9.71659 14.0812 9.3889 14.2132 9.3103 14.2387H9.32001C0.947723 16.9644 0 19.5106 0 20.6249C0 21.6388 0.988352 25 8.34491 25C15.7015 25 15.7015 22.5585 15.7015 21.2155C15.7015 19.8724 14.0003 18.576 14.0003 18.576Z" fill="#53D2DC"/>
<path d="M4.36324 10.5712C4.70682 9.67875 3.47999 10.1311 3.47999 10.1311C3.47999 10.1311 1.17737 10.991 1.17737 12.5717C1.17913 14.1419 3.48176 15.0132 3.48176 15.0132C3.48176 15.0132 4.83224 15.4128 4.365 14.5731C4.02495 13.9641 3.66989 13.4422 3.5639 13.0312C3.48613 12.7295 3.48613 12.4131 3.5639 12.1114C3.66812 11.7022 4.11328 11.2216 4.36324 10.5712Z" fill="#4F8FC0"/>
</svg>
