<svg width="25" height="24" viewBox="0 0 25 24" fill="none" xmlns="http://www.w3.org/2000/svg">
<g clip-path="url(#clip0_2618_17733)">
<path d="M23.9693 5.28067L18.9693 0.280674C18.7807 0.098516 18.5281 -0.00227842 18.2659 0C18.0037 0.00227842 17.7529 0.107447 17.5675 0.292855C17.3821 0.478263 17.2769 0.729076 17.2746 0.991273C17.2723 1.25347 17.3731 1.50607 17.5553 1.69467L19.3483 3.48767L17.8623 4.97067C16.9019 4.26549 15.7212 3.92645 14.533 4.01464C13.3448 4.10282 12.2271 4.61244 11.3813 5.45167L5.31229 11.5237C4.66037 12.1721 4.14351 12.9434 3.79163 13.7929C3.43975 14.6423 3.25983 15.5532 3.26229 16.4727V19.5727L0.555289 22.2807C0.459778 22.3729 0.383596 22.4833 0.331187 22.6053C0.278778 22.7273 0.251192 22.8585 0.250038 22.9913C0.248884 23.124 0.274186 23.2557 0.324467 23.3786C0.374748 23.5015 0.449001 23.6132 0.542894 23.7071C0.636786 23.801 0.748438 23.8752 0.871334 23.9255C0.994231 23.9758 1.12591 24.0011 1.25869 23.9999C1.39147 23.9988 1.52269 23.9712 1.64469 23.9188C1.7667 23.8664 1.87704 23.7902 1.96929 23.6947L4.67629 20.9877H7.77629C8.69577 20.9901 9.60661 20.8102 10.4561 20.4583C11.3056 20.1064 12.0769 19.5896 12.7253 18.9377L18.7973 12.8657C19.6372 12.0209 20.1474 10.9037 20.2358 9.71577C20.3242 8.52783 19.9849 7.34742 19.2793 6.38767L20.7623 4.90167L22.5553 6.69467C22.7439 6.87683 22.9965 6.97762 23.2587 6.97535C23.5209 6.97307 23.7717 6.8679 23.9571 6.68249C24.1425 6.49708 24.2477 6.24627 24.25 5.98407C24.2522 5.72188 24.1514 5.46927 23.9693 5.28067Z" fill="#4F8FC0"/>
<path d="M5.34473 15.509L6.21773 13.554L7.95872 15.295C8.05423 15.3872 8.13042 15.4976 8.18283 15.6196C8.23523 15.7416 8.26282 15.8728 8.26398 16.0056C8.26513 16.1384 8.23983 16.2701 8.18954 16.393C8.13926 16.5158 8.06501 16.6275 7.97112 16.7214C7.87723 16.8153 7.76557 16.8895 7.64268 16.9398C7.51978 16.9901 7.3881 17.0154 7.25532 17.0142C7.12254 17.0131 6.99132 16.9855 6.86932 16.9331C6.74731 16.8807 6.63697 16.8045 6.54472 16.709L5.34473 15.509Z" fill="white"/>
<path d="M9.54272 13.707L7.74972 11.914L9.16372 10.5L10.9567 12.293C11.1389 12.4816 11.2397 12.7342 11.2374 12.9964C11.2351 13.2586 11.1299 13.5094 10.9445 13.6948C10.7591 13.8802 10.5083 13.9854 10.2461 13.9877C9.98393 13.9899 9.73132 13.8892 9.54272 13.707Z" fill="white"/>
<path d="M12.5427 10.707L10.7497 8.914L12.1637 7.5L13.9567 9.293C14.0438 9.35498 14.2119 9.56185 14.2348 9.91494C14.2368 9.94195 14.2376 9.96912 14.2374 9.9964C14.2352 10.2528 14.1345 10.4983 13.9567 10.6824C13.8988 10.7616 13.7284 10.9068 13.454 10.964C13.3862 10.979 13.3166 10.9871 13.2461 10.9877C12.9839 10.9899 12.7313 10.8892 12.5427 10.707Z" fill="white"/>
</g>
<defs>
<clipPath id="clip0_2618_17733">
<rect width="24" height="24" fill="white" transform="translate(0.25)"/>
</clipPath>
</defs>
</svg>
