<svg width="25" height="24" viewBox="0 0 25 24" fill="none" xmlns="http://www.w3.org/2000/svg">
<g clip-path="url(#clip0_2618_16568)">
<path d="M23.9566 5.29292L18.9566 0.292919C18.768 0.110761 18.5154 0.00996642 18.2532 0.0122448C17.991 0.0145233 17.7402 0.119692 17.5548 0.3051C17.3694 0.490508 17.2642 0.741321 17.2619 1.00352C17.2596 1.26571 17.3604 1.51832 17.5426 1.70692L19.3356 3.49992L17.8496 4.98292C16.8892 4.27773 15.7085 3.9387 14.5203 4.02688C13.3321 4.11507 12.2144 4.62468 11.3686 5.46392L5.29959 11.5359C4.64767 12.1843 4.13082 12.9556 3.77893 13.8051C3.42705 14.6546 3.24714 15.5654 3.24959 16.4849V19.5849L0.542593 22.2929C0.447083 22.3852 0.3709 22.4955 0.318491 22.6175C0.266082 22.7395 0.238496 22.8707 0.237342 23.0035C0.236189 23.1363 0.26149 23.268 0.311771 23.3909C0.362052 23.5138 0.436305 23.6254 0.530198 23.7193C0.62409 23.8132 0.735742 23.8875 0.858639 23.9377C0.981535 23.988 1.11321 24.0133 1.24599 24.0122C1.37877 24.011 1.50999 23.9834 1.632 23.931C1.754 23.8786 1.86435 23.8024 1.95659 23.7069L4.66359 20.9999H7.76359C8.68307 21.0024 9.59391 20.8225 10.4434 20.4706C11.2929 20.1187 12.0642 19.6018 12.7126 18.9499L18.7846 12.8779C19.6245 12.0332 20.1347 10.916 20.2231 9.72802C20.3115 8.54007 19.9722 7.35967 19.2666 6.39992L20.7496 4.91392L22.5426 6.70692C22.7312 6.88908 22.9838 6.98987 23.246 6.98759C23.5082 6.98531 23.759 6.88014 23.9444 6.69474C24.1298 6.50933 24.235 6.25852 24.2373 5.99632C24.2395 5.73412 24.1387 5.48152 23.9566 5.29292ZM17.3716 11.4639L11.2996 17.5359C10.8364 18.0015 10.2855 18.3707 9.67871 18.622C9.07193 18.8732 8.42134 19.0017 7.76459 18.9999H5.24959V16.4849C5.2499 16.1573 5.28171 15.8305 5.34459 15.5089L6.54459 16.7089C6.63684 16.8044 6.74718 16.8806 6.86919 16.933C6.99119 16.9854 7.12241 17.013 7.25519 17.0142C7.38797 17.0153 7.51965 16.99 7.64254 16.9397C7.76544 16.8895 7.87709 16.8152 7.97099 16.7213C8.06488 16.6274 8.13913 16.5158 8.18941 16.3929C8.23969 16.27 8.26499 16.1383 8.26384 16.0055C8.26269 15.8727 8.2351 15.7415 8.18269 15.6195C8.13028 15.4975 8.0541 15.3872 7.95859 15.2949L6.21759 13.5539C6.36832 13.3412 6.5355 13.1405 6.71759 12.9539L7.74959 11.9139L9.54259 13.7069C9.73119 13.8891 9.98379 13.9899 10.246 13.9876C10.5082 13.9853 10.759 13.8801 10.9444 13.6947C11.1298 13.5093 11.235 13.2585 11.2373 12.9963C11.2395 12.7341 11.1387 12.4815 10.9566 12.2929L9.16359 10.4999L10.7496 8.91392L12.5426 10.7069C12.7312 10.8891 12.9838 10.9899 13.246 10.9876C13.5082 10.9853 13.759 10.8801 13.9444 10.6947C14.1298 10.5093 14.235 10.2585 14.2373 9.99632C14.2395 9.73412 14.1387 9.48152 13.9566 9.29292L12.1636 7.49992L12.7856 6.87792C13.3572 6.33274 14.1167 6.02858 14.9066 6.02858C15.6965 6.02858 16.456 6.33274 17.0276 6.87792L17.3716 7.22192C17.934 7.7845 18.2499 8.54743 18.2499 9.34292C18.2499 10.1384 17.934 10.9013 17.3716 11.4639Z" fill="#6A6975"/>
</g>
<defs>
<clipPath id="clip0_2618_16568">
<rect width="24" height="24" fill="white" transform="translate(0.25)"/>
</clipPath>
</defs>
</svg>
